<svg xmlns="http://www.w3.org/2000/svg" xmlns:xlink="http://www.w3.org/1999/xlink" viewBox="0 0 460.15 100"><defs><style>.cls-1{isolation:isolate;}.cls-2{fill:#fff;}.cls-3{fill:#0166ff;}.cls-4,.cls-5,.cls-6{opacity:0.3;}.cls-4{fill:url(#linear-gradient);}.cls-10,.cls-11,.cls-12,.cls-13,.cls-14,.cls-15,.cls-16,.cls-17,.cls-18,.cls-19,.cls-5,.cls-6,.cls-7,.cls-8,.cls-9{mix-blend-mode:multiply;}.cls-10,.cls-11,.cls-12,.cls-13,.cls-14,.cls-15,.cls-16,.cls-17,.cls-18,.cls-19,.cls-6,.cls-7,.cls-8,.cls-9{fill:#231f20;}.cls-7{opacity:0.28;}.cls-8{opacity:0.26;}.cls-9{opacity:0.23;}.cls-10{opacity:0.2;}.cls-11{opacity:0.17;}.cls-12{opacity:0.14;}.cls-13{opacity:0.11;}.cls-14{opacity:0.09;}.cls-15{opacity:0.07;}.cls-16{opacity:0.05;}.cls-17{opacity:0.03;}.cls-18{opacity:0.02;}.cls-19{opacity:0.01;}.cls-20{fill:#f1f2f2;}.cls-21{fill:#e2e2e2;}.cls-22{fill:#e6e7e9;}.cls-23{fill:url(#linear-gradient-2);}</style><linearGradient id="linear-gradient" x1="336.75" y1="51.96" x2="456.14" y2="51.96" gradientUnits="userSpaceOnUse"><stop offset="0" stop-color="#fff"/><stop offset="1" stop-color="#fff" stop-opacity="0"/></linearGradient><linearGradient id="linear-gradient-2" x1="39.67" y1="73.15" x2="93.1" y2="73.15" gradientUnits="userSpaceOnUse"><stop offset="0" stop-color="#fff"/><stop offset="1" stop-color="#d1d3d4"/></linearGradient></defs><g class="cls-1"><g id="Layer_2" data-name="Layer 2"><g id="Layer_1-2" data-name="Layer 1"><path class="cls-2" d="M460.15,50a46.66,46.66,0,0,1-13,31.91A49.19,49.19,0,0,1,414.22,99a62.6,62.6,0,0,1-9.89.8H102.23l2.17-3.75,8.93-15.46L131,50,113.35,19.43,104.4,3.93,102.23.19h302.1c.87,0,1.79,0,2.73.06s1.65-.06,2.43-.06a49.29,49.29,0,0,1,41.86,23.06A45.68,45.68,0,0,1,460.15,50Z"/><path class="cls-3" d="M448.26,25.33A45.78,45.78,0,0,0,409.49,3.91c-.81,0-1.62,0-2.42.06s-1.82-.06-2.74-.06H108.68L135.29,50,108.68,96.09H404.33a58.41,58.41,0,0,0,9.42-.78,45.66,45.66,0,0,0,30.59-15.88A42.84,42.84,0,0,0,456.42,50,42,42,0,0,0,448.26,25.33Z"/><path class="cls-4" d="M336.75,96.09h67.3a58.32,58.32,0,0,0,9.42-.78,45.66,45.66,0,0,0,30.59-15.88A42.84,42.84,0,0,0,456.14,50,42,42,0,0,0,448,25.33a46,46,0,0,0-20.2-17.5C393.26,35.83,361.59,68.27,336.75,96.09Z"/><g class="cls-5"><path class="cls-6" d="M37.52,100,30.07,87.63,22.73,75.2c-2.46-4.13-4.86-8.3-7.28-12.46L8.19,50.27,8,50l.16-.27,7.25-12.47c2.43-4.16,4.82-8.33,7.29-12.47l7.34-12.42L37.52,0l-7,12.63L23.44,25.21c-2.35,4.19-4.77,8.35-7.15,12.53L9.11,50.27v-.54l7.18,12.53c2.38,4.18,4.8,8.34,7.15,12.54l7.09,12.57Z"/><path class="cls-7" d="M37.52,100c-2.62-4-5.11-8.16-7.67-12.24s-5-8.21-7.49-12.34c-5-8.25-9.81-16.56-14.64-24.89L7.41,50l.31-.53c4.83-8.33,9.68-16.64,14.64-24.89q3.7-6.19,7.49-12.34c2.56-4.08,5-8.19,7.67-12.24C35.32,4.29,33,8.51,30.75,12.76s-4.6,8.45-6.94,12.66c-4.67,8.42-9.44,16.77-14.23,25.11V49.47c4.79,8.34,9.56,16.7,14.22,25.11,2.35,4.21,4.65,8.43,7,12.66S35.32,95.71,37.52,100Z"/><path class="cls-8" d="M37.52,100c-2.71-4-5.3-8-7.9-12.11S24.5,79.74,22,75.62s-5-8.24-7.45-12.36L7.26,50.8,6.79,50l.47-.8,7.29-12.46C17,32.62,19.46,28.47,22,24.37s5.05-8.19,7.62-12.26S34.8,4,37.52,0C35.42,4.34,33.2,8.62,31,12.89s-4.5,8.52-6.81,12.74-4.66,8.42-7,12.63L10,50.8V49.2l7.14,12.54c2.33,4.21,4.71,8.4,7,12.64S28.73,82.85,31,87.11,35.42,95.66,37.52,100Z"/><path class="cls-9" d="M37.52,100c-2.82-3.93-5.47-8-8.12-12s-5.23-8.09-7.76-12.19-5-8.21-7.52-12.32S9.21,55.23,6.8,51.07L6.18,50l.62-1.07c2.41-4.16,4.84-8.32,7.31-12.44s4.95-8.26,7.53-12.32S26.77,16,29.39,12s5.31-8,8.13-12c-2,4.4-4.16,8.71-6.31,13s-4.4,8.57-6.68,12.8-4.61,8.46-6.91,12.68S12.9,46.9,10.5,51.07V48.93q3.6,6.26,7.12,12.56c2.3,4.22,4.67,8.41,6.9,12.68S29,82.69,31.21,87,35.52,95.6,37.52,100Z"/><path class="cls-10" d="M37.52,100c-2.92-3.87-5.63-7.86-8.35-11.85s-5.33-8-7.9-12.1-5.11-8.17-7.6-12.28S8.75,55.5,6.33,51.34L5.56,50l.77-1.34c2.42-4.16,4.85-8.31,7.34-12.43S18.68,28,21.26,24s5.24-8.09,7.9-12.11S34.6,3.87,37.52,0c-1.89,4.46-4,8.81-6.08,13.16s-4.29,8.63-6.54,12.89-4.52,8.5-6.84,12.72-4.7,8.4-7.1,12.57V48.66c2.4,4.18,4.78,8.36,7.1,12.57S22.67,69.68,24.9,74s4.39,8.58,6.53,12.9S35.62,95.54,37.52,100Z"/><path class="cls-11" d="M37.52,100c-3-3.81-5.79-7.77-8.58-11.72s-5.42-8-8-12S15.74,68.13,13.24,64s-5-8.26-7.37-12.42L4.94,50l.93-1.6Q9.49,42.15,13.23,36c2.51-4.11,5.05-8.2,7.67-12.24s5.28-8.06,8-12S34.49,3.81,37.52,0c-1.79,4.52-3.83,8.9-5.86,13.29s-4.2,8.68-6.39,13S20.81,34.8,18.5,39s-4.67,8.41-7.07,12.58V48.4c2.39,4.17,4.76,8.36,7.07,12.58s4.57,8.47,6.76,12.76,4.34,8.61,6.4,13S35.73,95.48,37.52,100Z"/><path class="cls-12" d="M37.52,100c-1.56-1.88-3-3.8-4.51-5.73s-2.88-3.89-4.3-5.85c-2.81-3.94-5.51-7.93-8.17-12s-5.22-8.1-7.74-12.2-5-8.24-7.39-12.4L4.32,50l1.09-1.86L9.06,41.9l3.73-6.18c2.53-4.09,5.09-8.17,7.74-12.19s5.37-8,8.18-12c1.41-2,2.82-3.92,4.3-5.85S36,1.87,37.52,0c-.84,2.29-1.77,4.53-2.71,6.77s-1.92,4.45-2.92,6.65c-2,4.4-4.1,8.74-6.26,13.05S21.23,35,18.94,39.28L15.46,45.6l-3.57,6.27V48.13c2.39,4.17,4.76,8.36,7,12.6s4.53,8.49,6.69,12.8,4.26,8.65,6.27,13c1,2.21,2,4.41,2.91,6.65S36.67,97.71,37.52,100Z"/><path class="cls-13" d="M37.52,100c-3.21-3.7-6.15-7.56-9-11.45s-5.62-7.87-8.31-11.87-5.28-8.07-7.82-12.16-5-8.22-7.42-12.38L3.69,50l1.25-2.13L8.6,41.64l3.75-6.17c2.54-4.09,5.13-8.15,7.82-12.15s5.44-8,8.31-11.87S34.3,3.7,37.52,0c-1.6,4.63-3.47,9.11-5.4,13.55s-4,8.8-6.12,13.13-4.35,8.6-6.62,12.85l-3.46,6.33-3.57,6.28V47.86c2.39,4.18,4.75,8.37,7,12.62S23.86,69,26,73.32s4.18,8.7,6.12,13.13S35.92,95.37,37.52,100Z"/><path class="cls-14" d="M37.52,100c-3.31-3.64-6.32-7.46-9.26-11.32s-5.72-7.81-8.44-11.79-5.34-8-7.9-12.11c-1.29-2-2.51-4.11-3.77-6.16L4.48,52.41,3.06,50l1.42-2.41,3.66-6.22c1.26-2,2.49-4.11,3.77-6.15,2.56-4.08,5.17-8.13,7.89-12.11s5.52-7.93,8.45-11.79S34.2,3.64,37.52,0c-1.5,4.69-3.3,9.21-5.17,13.68s-3.9,8.86-6,13.21-4.29,8.64-6.54,12.89c-1.12,2.13-2.3,4.23-3.44,6.35l-3.56,6.28V47.59l3.55,6.29c1.14,2.11,2.32,4.21,3.44,6.34q3.39,6.39,6.54,12.89c2.09,4.35,4.1,8.75,6,13.21S36,95.31,37.52,100Z"/><path class="cls-15" d="M37.52,100C34.11,96.41,31,92.63,28,88.81s-5.83-7.75-8.59-11.71-5.39-8-8-12.07c-1.29-2-2.52-4.1-3.79-6.14L4,52.67,2.44,50,4,47.33l3.66-6.22C9,39.06,10.18,37,11.47,35c2.58-4.06,5.21-8.1,8-12.06S25,15,28,11.19,34.1,3.58,37.52,0c-1.4,4.75-3.13,9.3-4.94,13.81s-3.8,8.92-5.85,13.29S22.49,35.77,20.26,40c-1.12,2.13-2.29,4.23-3.43,6.35l-3.55,6.28V47.33l3.55,6.28C18,55.73,19.14,57.83,20.25,60c2.24,4.26,4.41,8.57,6.46,12.93s4,8.79,5.86,13.29S36.12,95.25,37.52,100Z"/><path class="cls-16" d="M37.52,100a141.75,141.75,0,0,1-9.71-11.06c-3-3.8-5.92-7.69-8.72-11.63s-5.46-8-8-12c-1.3-2-2.53-4.09-3.81-6.13L3.56,52.94,1.84,50.05l1.72-3C5.94,42.88,8.47,38.78,11,34.71s5.25-8.08,8-12,5.67-7.84,8.72-11.64A139.7,139.7,0,0,1,37.52,0,142,142,0,0,1,32.8,14c-1.76,4.53-3.69,9-5.71,13.36s-4.17,8.7-6.39,13-4.53,8.49-7,12.65V47.06l3.54,6.29c1.14,2.12,2.31,4.22,3.41,6.37,2.22,4.27,4.37,8.59,6.39,13S31,81.53,32.79,86.06A139.23,139.23,0,0,1,37.52,100Z"/><path class="cls-17" d="M37.52,100a130.42,130.42,0,0,1-9.94-10.93c-3.1-3.77-6-7.63-8.85-11.55s-5.52-7.93-8.12-12S5.5,57.37,3.09,53.21L1.24,50l1.85-3.22q3.6-6.26,7.5-12.33c2.62-4.05,5.29-8.06,8.12-12s5.76-7.79,8.86-11.56A130.43,130.43,0,0,1,37.52,0,129.07,129.07,0,0,1,33,14.08c-1.71,4.57-3.59,9-5.58,13.44s-4.11,8.74-6.31,13S16.62,49,14.21,53.21V46.79c2.4,4.17,4.72,8.39,6.92,12.67s4.32,8.62,6.31,13S31.31,81.36,33,85.93A131.87,131.87,0,0,1,37.52,100Z"/><path class="cls-18" d="M37.52,100A119.66,119.66,0,0,1,27.36,89.2c-3.16-3.73-6.13-7.57-9-11.48A268.33,268.33,0,0,1,2.63,53.48L.62,50l2-3.49A264.86,264.86,0,0,1,18.35,22.27c2.86-3.91,5.83-7.75,9-11.48A121.25,121.25,0,0,1,37.52,0a121.1,121.1,0,0,1-4.26,14.21c-1.65,4.6-3.49,9.09-5.44,13.52A266.36,266.36,0,0,1,14.67,53.48v-7A269.83,269.83,0,0,1,27.8,72.28c1.95,4.43,3.79,8.92,5.44,13.52A121,121,0,0,1,37.52,100Z"/><path class="cls-19" d="M37.52,100A113.38,113.38,0,0,1,27.13,89.33c-3.22-3.7-6.22-7.52-9.13-11.39A252.68,252.68,0,0,1,2.16,53.74L0,50l2.16-3.75A249.51,249.51,0,0,1,18,22.05c2.91-3.87,5.91-7.69,9.13-11.39A113.5,113.5,0,0,1,37.52,0a113.83,113.83,0,0,1-4,14.34C31.9,19,30.09,23.49,28.19,28A249.29,249.29,0,0,1,15.13,53.74V46.26a252.33,252.33,0,0,1,13,25.8c1.9,4.46,3.71,9,5.3,13.61A114.2,114.2,0,0,1,37.52,100Z"/></g><g class="cls-5"><path class="cls-6" d="M95.25,0l7.44,12.37L110,24.8c2.46,4.13,4.86,8.3,7.28,12.46l7.26,12.47.16.27-.16.27-7.26,12.47c-2.42,4.16-4.82,8.33-7.28,12.47L102.7,87.63,95.25,100l7-12.63,7.09-12.58c2.35-4.19,4.77-8.35,7.15-12.53l7.18-12.53v.54l-7.18-12.53c-2.38-4.18-4.8-8.34-7.15-12.54l-7.09-12.57Z"/><path class="cls-7" d="M95.25,0c2.62,4.05,5.11,8.16,7.67,12.24s5,8.21,7.49,12.34c5,8.25,9.81,16.56,14.64,24.89l.31.53-.31.53c-4.83,8.33-9.68,16.64-14.64,24.89q-3.7,6.19-7.49,12.34c-2.56,4.08-5,8.19-7.67,12.24,2.2-4.29,4.51-8.51,6.76-12.76s4.61-8.45,6.95-12.66c4.67-8.42,9.44-16.77,14.23-25.11v1.06c-4.79-8.34-9.56-16.7-14.22-25.11q-3.52-6.32-7-12.66C99.76,8.51,97.45,4.29,95.25,0Z"/><path class="cls-8" d="M95.25,0c2.71,4,5.3,8.05,7.9,12.11s5.12,8.15,7.62,12.27,5,8.24,7.44,12.36l7.3,12.46.47.8-.47.8-7.29,12.46c-2.48,4.12-4.91,8.27-7.45,12.37s-5,8.19-7.62,12.26S98,96,95.25,100c2.1-4.34,4.32-8.62,6.54-12.89s4.5-8.52,6.81-12.74,4.66-8.42,7-12.63l7.14-12.54v1.6l-7.14-12.54c-2.33-4.21-4.71-8.4-7-12.64s-4.57-8.47-6.82-12.73S97.35,4.34,95.25,0Z"/><path class="cls-9" d="M95.25,0c2.82,3.93,5.47,8,8.12,12s5.23,8.09,7.76,12.19,5,8.21,7.52,12.32,4.91,8.28,7.32,12.44l.62,1.07L126,51.07c-2.41,4.16-4.84,8.32-7.31,12.44s-5,8.26-7.53,12.32S106,84,103.38,88s-5.31,8-8.13,12c2-4.4,4.16-8.71,6.31-13s4.4-8.57,6.68-12.8,4.61-8.46,6.91-12.68,4.72-8.39,7.12-12.56v2.14c-2.4-4.17-4.79-8.35-7.12-12.56s-4.67-8.41-6.9-12.68-4.49-8.52-6.69-12.81S97.25,4.4,95.25,0Z"/><path class="cls-10" d="M95.25,0c2.92,3.87,5.63,7.86,8.35,11.85s5.33,8,7.9,12.1,5.11,8.17,7.59,12.28,4.93,8.27,7.34,12.43l.78,1.34-.78,1.34c-2.41,4.16-4.84,8.31-7.33,12.43s-5,8.22-7.59,12.28-5.24,8.09-7.9,12.11-5.44,8-8.36,11.84c1.89-4.46,4-8.81,6.08-13.16s4.29-8.63,6.53-12.89,4.53-8.5,6.85-12.72,4.69-8.4,7.09-12.57v2.68c-2.39-4.18-4.77-8.36-7.09-12.57s-4.61-8.45-6.84-12.72-4.39-8.58-6.53-12.9S97.15,4.46,95.25,0Z"/><path class="cls-11" d="M95.25,0c3,3.81,5.79,7.77,8.58,11.72s5.42,8,8,12S117,31.87,119.53,36s5,8.26,7.37,12.42l.93,1.6-.93,1.6c-2.42,4.17-4.86,8.31-7.36,12.42s-5.05,8.2-7.67,12.24-5.28,8.06-8,12-5.55,7.9-8.58,11.71c1.79-4.52,3.83-8.9,5.85-13.29s4.21-8.68,6.4-13S112,65.2,114.27,61s4.67-8.41,7.07-12.58v3.2c-2.39-4.17-4.76-8.36-7.07-12.58s-4.57-8.47-6.76-12.76-4.34-8.61-6.4-13S97,4.52,95.25,0Z"/><path class="cls-12" d="M95.25,0c1.56,1.88,3,3.8,4.5,5.73s2.89,3.89,4.3,5.85c2.81,3.94,5.52,7.93,8.18,12s5.22,8.1,7.74,12.2,5,8.24,7.39,12.4L128.45,50l-1.09,1.86-3.65,6.23L120,64.28c-2.53,4.09-5.09,8.17-7.74,12.19s-5.37,8-8.18,12c-1.41,2-2.83,3.92-4.3,5.85s-2.94,3.86-4.51,5.73c.84-2.29,1.77-4.53,2.71-6.77s1.92-4.45,2.92-6.65c2-4.4,4.1-8.74,6.26-13s4.4-8.57,6.69-12.81l3.48-6.32,3.57-6.27v3.74c-2.39-4.17-4.76-8.36-7-12.6s-4.52-8.49-6.69-12.8-4.25-8.65-6.26-13c-1-2.21-2-4.41-2.91-6.65S96.1,2.29,95.25,0Z"/><path class="cls-13" d="M95.25,0c3.21,3.7,6.15,7.56,9,11.45s5.62,7.87,8.31,11.87,5.28,8.07,7.82,12.16,5,8.22,7.41,12.38L129.07,50l-1.25,2.13-3.65,6.22-3.75,6.17c-2.55,4.09-5.13,8.15-7.82,12.15s-5.44,8-8.31,11.87-5.82,7.75-9,11.45c1.6-4.63,3.47-9.11,5.4-13.55s4-8.8,6.12-13.13,4.35-8.6,6.62-12.85l3.46-6.33,3.56-6.28v4.28c-2.39-4.18-4.74-8.37-7-12.62s-4.49-8.52-6.62-12.84-4.18-8.7-6.12-13.13S96.85,4.63,95.25,0Z"/><path class="cls-14" d="M95.25,0c3.31,3.64,6.32,7.46,9.26,11.32s5.72,7.81,8.44,11.79,5.34,8,7.9,12.11c1.29,2,2.51,4.11,3.77,6.16l3.67,6.21L129.7,50l-1.41,2.41-3.66,6.22c-1.26,2-2.49,4.11-3.77,6.15-2.56,4.08-5.17,8.13-7.9,12.11s-5.51,7.93-8.44,11.79-6,7.68-9.27,11.32c1.5-4.69,3.3-9.21,5.17-13.68s3.9-8.86,6-13.21,4.29-8.64,6.54-12.89c1.12-2.13,2.3-4.23,3.44-6.35L120,47.59v4.82l-3.55-6.29c-1.15-2.11-2.32-4.21-3.44-6.34q-3.39-6.39-6.54-12.89c-2.09-4.35-4.1-8.75-6-13.21S96.75,4.69,95.25,0Z"/><path class="cls-15" d="M95.25,0c3.41,3.59,6.49,7.37,9.48,11.19s5.83,7.75,8.59,11.71,5.39,8,8,12.07c1.29,2,2.52,4.1,3.79,6.14l3.67,6.22L130.33,50l-1.58,2.67-3.66,6.22c-1.27,2-2.5,4.11-3.79,6.15-2.58,4.06-5.21,8.1-8,12.06s-5.6,7.88-8.58,11.71-6.08,7.61-9.5,11.19c1.4-4.75,3.13-9.3,4.94-13.81S104,77.27,106,72.9s4.23-8.67,6.47-12.94c1.11-2.13,2.29-4.23,3.43-6.35l3.55-6.28v5.34l-3.55-6.28c-1.14-2.12-2.31-4.22-3.42-6.36-2.24-4.26-4.41-8.57-6.46-12.93s-4-8.79-5.86-13.29S96.65,4.75,95.25,0Z"/><path class="cls-16" d="M95.25,0A141.75,141.75,0,0,1,105,11.06c3,3.8,5.92,7.69,8.72,11.63s5.45,8,8,12c1.31,2,2.54,4.09,3.82,6.13l3.67,6.21L130.92,50l-1.71,3c-2.38,4.18-4.91,8.28-7.47,12.35s-5.25,8.08-8,12S108,85.15,105,89a139.7,139.7,0,0,1-9.72,11,141.91,141.91,0,0,1,4.71-14c1.77-4.53,3.7-9,5.72-13.36s4.17-8.7,6.39-13,4.53-8.49,7-12.65v5.88l-3.54-6.29c-1.14-2.12-2.31-4.22-3.41-6.37-2.22-4.27-4.37-8.59-6.39-13s-3.94-8.84-5.71-13.37A139.23,139.23,0,0,1,95.25,0Z"/><path class="cls-17" d="M95.25,0a130.42,130.42,0,0,1,9.94,10.93c3.1,3.77,6,7.63,8.85,11.56s5.52,7.92,8.12,12,5.11,8.17,7.52,12.33l1.85,3.2-1.85,3.22q-3.62,6.26-7.5,12.33c-2.62,4-5.29,8.06-8.12,12s-5.76,7.79-8.86,11.56a130.43,130.43,0,0,1-10,10.92,129.07,129.07,0,0,1,4.49-14.08c1.71-4.57,3.59-9,5.57-13.44s4.12-8.74,6.32-13,4.52-8.5,6.93-12.67v6.42c-2.4-4.17-4.72-8.39-6.92-12.67s-4.32-8.62-6.31-13-3.87-8.87-5.58-13.44A131.87,131.87,0,0,1,95.25,0Z"/><path class="cls-18" d="M95.25,0a119.66,119.66,0,0,1,10.16,10.8c3.16,3.73,6.13,7.57,9,11.48a266.29,266.29,0,0,1,15.74,24.24l2,3.47-2,3.49a264.86,264.86,0,0,1-15.72,24.25c-2.86,3.91-5.83,7.75-9,11.48A121.25,121.25,0,0,1,95.25,100a121.1,121.1,0,0,1,4.26-14.21c1.65-4.6,3.49-9.09,5.44-13.52A266.36,266.36,0,0,1,118.1,46.52v7A269.83,269.83,0,0,1,105,27.72c-2-4.43-3.79-8.92-5.45-13.52A122.91,122.91,0,0,1,95.25,0Z"/><path class="cls-19" d="M95.25,0a113.38,113.38,0,0,1,10.39,10.67c3.22,3.7,6.22,7.52,9.13,11.39a252.58,252.58,0,0,1,15.83,24.2L132.77,50l-2.17,3.75A249.41,249.41,0,0,1,114.79,78c-2.91,3.87-5.91,7.69-9.13,11.39A113.5,113.5,0,0,1,95.25,100a113.83,113.83,0,0,1,4-14.34c1.59-4.64,3.4-9.15,5.3-13.61a249.29,249.29,0,0,1,13.06-25.79v7.48a252.33,252.33,0,0,1-13-25.8c-1.9-4.46-3.71-9-5.3-13.61A114.2,114.2,0,0,1,95.25,0Z"/></g><polygon class="cls-2" points="37.52 100 8.65 50 37.52 0 95.25 0 124.12 50 95.25 100 37.52 100"/><polygon class="cls-20" points="39.67 96.28 12.95 50 39.67 3.73 93.1 3.73 119.82 50 93.1 96.28 39.67 96.28"/><polygon class="cls-21" points="39.67 3.74 12.95 50.01 66.38 50.01 39.67 3.74"/><polygon class="cls-2" points="66.38 50.01 93.1 96.29 119.82 50.01 66.38 50.01"/><polygon class="cls-2" points="119.82 50.01 93.1 3.74 66.38 50.01 119.82 50.01"/><polygon class="cls-2" points="93.1 3.74 39.67 3.74 66.38 50.01 93.1 3.74"/><polygon class="cls-22" points="12.95 50.01 39.67 96.29 39.67 96.29 66.38 50.01 12.95 50.01"/><polygon class="cls-23" points="39.67 96.29 93.1 96.29 93.1 96.29 66.38 50.01 39.67 96.29"/><path class="cls-2" d="M194,50a3.44,3.44,0,0,1-.36,1.53c-13.33,26.31-35.45,42.66-59.86,44.56-1.59.12-3.18.18-4.79.18H105.55a3.17,3.17,0,0,1-1.15-.21l8.93-15.46,5.13-5.08a3.29,3.29,0,0,1,2.32-1H135.1c14.5,0,28.12-9.17,36.58-24.57-8.42-15.38-22.07-24.56-36.58-24.56H120.78a3.34,3.34,0,0,1-2.34-1L115.9,22l-.63-.61-1.92-1.91L104.4,3.93a3.4,3.4,0,0,1,1.15-.21H129c1.61,0,3.2.06,4.79.19,24.41,1.9,46.53,18.25,59.86,44.57A3.4,3.4,0,0,1,194,50Z"/><path class="cls-2" d="M203.31,42.91H201.9v3.62h-1.69V37.1h3.1a2.91,2.91,0,1,1,0,5.81Zm-.07-1.53a1.37,1.37,0,1,0,0-2.74H201.9v2.74Z"/><path class="cls-2" d="M212.76,37.1a2.78,2.78,0,0,1,3,2.89,2.7,2.7,0,0,1-1.92,2.72l2,3.82h-1.95l-1.86-3.67h-.79v3.67H209.6V37.1Zm-.06,1.57h-1.41v2.77h1.41A1.25,1.25,0,0,0,214.06,40,1.22,1.22,0,0,0,212.7,38.67Z"/><path class="cls-2" d="M223.29,46.63c-2.37,0-4.31-2-4.31-4.84S220.92,37,223.29,37s4.31,2,4.31,4.83S225.68,46.63,223.29,46.63Zm0-1.69c1.52,0,2.57-1.23,2.57-3.15s-1.05-3.12-2.57-3.12-2.58,1.2-2.58,3.12S221.76,44.94,223.29,44.94Z"/><path class="cls-2" d="M234.12,37.1h1.7v6.62c0,1.87-1.06,2.91-2.62,2.91s-2.69-1.07-2.69-3h1.69c0,.8.34,1.29,1,1.29s.94-.48.94-1.22Z"/><path class="cls-2" d="M244.72,38.63h-3.19V41h2.83v1.5h-2.83V45h3.19v1.54h-4.88V37.09h4.88Z"/><path class="cls-2" d="M252.17,37a4,4,0,0,1,4,3.05h-1.94a2.12,2.12,0,0,0-2-1.35c-1.47,0-2.52,1.2-2.52,3.12s1.05,3.12,2.52,3.12a2.1,2.1,0,0,0,2-1.36h1.94a4,4,0,0,1-4,3c-2.42,0-4.26-2-4.26-4.81S249.75,37,252.17,37Z"/><path class="cls-2" d="M259.19,37.1h6.17v1.53h-2.24v7.9h-1.69v-7.9h-2.24Z"/><path class="cls-2" d="M273.58,37.1h1.92l2.67,7,2.68-7h1.9v9.43h-1.69V40.4l-2.25,6.13h-1.28l-2.26-6.13v6.13h-1.69Z"/><path class="cls-2" d="M291.63,44.74h-3.35l-.55,1.79H286l3-9.44h2l3,9.44h-1.78ZM290,39.28l-1.22,3.94h2.44Z"/><path class="cls-2" d="M304.36,37.09v9.44h-1.69l-3.82-6.47v6.47h-1.69V37.09h1.69l3.82,6.48V37.09Z"/><path class="cls-2" d="M313.24,44.74h-3.35l-.55,1.79h-1.77l3-9.44h2l3,9.44H313.8Zm-1.67-5.46-1.22,3.94h2.44Z"/><path class="cls-2" d="M326.58,39.94h-1.95a2.06,2.06,0,0,0-2-1.22c-1.51,0-2.56,1.2-2.56,3.08s1.06,3.11,2.63,3.11a2.38,2.38,0,0,0,2.39-2.18h-2.9V41.29h4.56v1.65a4.26,4.26,0,0,1-4.11,3.67c-2.45,0-4.3-2-4.3-4.81S320.22,37,322.66,37A3.91,3.91,0,0,1,326.58,39.94Z"/><path class="cls-2" d="M335,38.63h-3.2V41h2.83v1.5h-2.83V45H335v1.54h-4.89V37.09H335Z"/><path class="cls-2" d="M338.57,37.1h1.91l2.68,7,2.68-7h1.9v9.43h-1.69V40.4l-2.25,6.13h-1.28l-2.26-6.13v6.13h-1.69Z"/><path class="cls-2" d="M356.35,38.63h-3.2V41H356v1.5h-2.83V45h3.2v1.54h-4.89V37.09h4.89Z"/><path class="cls-2" d="M367.13,37.09v9.44h-1.68l-3.82-6.47v6.47h-1.69V37.09h1.69l3.82,6.48V37.09Z"/><path class="cls-2" d="M370.41,37.1h6.17v1.53h-2.24v7.9h-1.69v-7.9h-2.24Z"/><path class="cls-2" d="M263.82,62.84A2.84,2.84,0,0,1,260.69,60h1.81a1.22,1.22,0,0,0,1.28,1.26,1.13,1.13,0,0,0,1.27-1.15c0-2-4.34-.81-4.33-4.23a2.68,2.68,0,0,1,3-2.73,2.76,2.76,0,0,1,3,2.69h-1.86a1.16,1.16,0,0,0-1.21-1.12,1,1,0,0,0-1.15,1.11c0,1.89,4.31.83,4.31,4.16A2.78,2.78,0,0,1,263.82,62.84Z"/><path class="cls-2" d="M269.61,53.32h1.91l1.81,4.31,1.79-4.31H277l-2.84,6.14v3.29h-1.69V59.46Z"/><path class="cls-2" d="M282.94,62.84A2.84,2.84,0,0,1,279.82,60h1.81a1.21,1.21,0,0,0,1.28,1.26,1.13,1.13,0,0,0,1.26-1.15c0-2-4.34-.81-4.32-4.23a2.68,2.68,0,0,1,3-2.73,2.75,2.75,0,0,1,3,2.69H284a1.16,1.16,0,0,0-1.21-1.12,1,1,0,0,0-1.15,1.11c0,1.89,4.31.83,4.31,4.16A2.78,2.78,0,0,1,282.94,62.84Z"/><path class="cls-2" d="M289,53.32h6.18v1.52h-2.25v7.91h-1.68V54.84H289Z"/><path class="cls-2" d="M303.34,54.84h-3.2v2.37H303v1.5h-2.84v2.5h3.2v1.54h-4.88V53.3h4.88Z"/><path class="cls-2" d="M306.93,53.32h1.92l2.67,7,2.68-7h1.9v9.43h-1.69V56.61l-2.25,6.14h-1.28l-2.26-6.14v6.14h-1.69Z"/></g></g></g></svg>