<svg xmlns="http://www.w3.org/2000/svg" viewBox="0 0 42.43 42.24"><defs><style>.cls-1{fill:#fff;}</style></defs><g id="Layer_2" data-name="Layer 2"><g id="Layer_1-2" data-name="Layer 1"><path class="cls-1" d="M42.43,1.53V12.32c0,12.1-7.67,23.22-20.52,29.75a1.5,1.5,0,0,1-.69.17,1.57,1.57,0,0,1-.7-.17C7.67,35.54,0,24.42,0,12.32V1.53A1.52,1.52,0,0,1,2.6.45l6.91,7A1.5,1.5,0,0,1,10,8.54v6.59C10,21.79,14.16,28.06,21.22,32c7-3.88,11.26-10.16,11.26-16.83V8.54a1.55,1.55,0,0,1,.44-1.08l1.16-1.17L34.35,6,39.84.46A1.46,1.46,0,0,1,40.91,0,1.53,1.53,0,0,1,42.43,1.53Z"/></g></g></svg>